HIERARCHY
ROOT Hips
{
  OFFSET 55.6608 55.1057 14.0176
  CHANNELS 6 Xposition Yposition Zposition Zrotation Xrotation Yrotation
  JOINT spine
  {
    OFFSET 0 8.13249 0.467659
    CHANNELS 3 Zrotation Xrotation Yrotation
    JOINT spine1
    {
      OFFSET 0 10.3498 0
      CHANNELS 3 Zrotation Xrotation Yrotation
      JOINT spine2
      {
        OFFSET 0 9.91699 0
        CHANNELS 3 Zrotation Xrotation Yrotation
        JOINT Neck
        {
          OFFSET 0 25.461 1.2139
          CHANNELS 3 Zrotation Xrotation Yrotation
          JOINT Head
          {
            OFFSET 0 7.69245 0
            CHANNELS 3 Zrotation Xrotation Yrotation
            End Site
            {
              OFFSET 0 18.62 -6.14063
            }
          }
        }
        JOINT RightShoulder
        {
          OFFSET -4.17575 10.7096 -0.581445
          CHANNELS 3 Zrotation Xrotation Yrotation
          JOINT RightArm
          {
            OFFSET 0 14.0466 0
            CHANNELS 3 Zrotation Xrotation Yrotation
            JOINT RightArmRoll
            {
              OFFSET 0 7.09099 0
              CHANNELS 3 Zrotation Xrotation Yrotation
              JOINT RightForeArm
              {
                OFFSET 0 20.6535 0
                CHANNELS 3 Zrotation Xrotation Yrotation
                JOINT RightForeArmRoll
                {
                  OFFSET 0 7.95718 0
                  CHANNELS 3 Zrotation Xrotation Yrotation
                  JOINT RightHand
                  {
                    OFFSET 0 15.9683 0
                    CHANNELS 3 Zrotation Xrotation Yrotation
                    End Site
                    {
                      OFFSET 0 0 0
                    }
                  }
                }
              }
            }
          }
        }
        JOINT LeftShoulder
        {
          OFFSET 4.17575 10.7096 -0.581445
          CHANNELS 3 Zrotation Xrotation Yrotation
          JOINT LeftArm
          {
            OFFSET 0 14.0466 0
            CHANNELS 3 Zrotation Xrotation Yrotation
            JOINT LeftArmRoll
            {
              OFFSET 0 7.09099 0
              CHANNELS 3 Zrotation Xrotation Yrotation
              JOINT LeftForeArm
              {
                OFFSET 0 20.6535 0
                CHANNELS 3 Zrotation Xrotation Yrotation
                JOINT LeftForeArmRoll
                {
                  OFFSET 0 7.95718 0
                  CHANNELS 3 Zrotation Xrotation Yrotation
                  JOINT LeftHand
                  {
                    OFFSET 0 15.9683 0
                    CHANNELS 3 Zrotation Xrotation Yrotation
                    End Site
                    {
                      OFFSET 0 0 0
                    }
                  }
                }
              }
            }
          }
        }
      }
    }
  }
  JOINT RightUpLeg
  {
    OFFSET -7.20834 -1.32182 -1.10884
    CHANNELS 3 Zrotation Xrotation Yrotation
    JOINT RightUpLegRoll
    {
      OFFSET 0 18.7238 0
      CHANNELS 3 Zrotation Xrotation Yrotation
      JOINT RightLeg
      {
        OFFSET 0 -23.1866 0
        CHANNELS 3 Zrotation Xrotation Yrotation
        JOINT RightLegRoll
        {
          OFFSET 0 23.2624 0
          CHANNELS 3 Zrotation Xrotation Yrotation
          JOINT RightFoot
          {
            OFFSET 0 19.3621 0
            CHANNELS 3 Zrotation Xrotation Yrotation
            JOINT RightToeBase
            {
              OFFSET 0 16.1857 0
              CHANNELS 3 Zrotation Xrotation Yrotation
              End Site
              {
                OFFSET 0.00686052 7.83863 -0.903522
              }
            }
          }
        }
      }
    }
  }
  JOINT LeftUpLeg
  {
    OFFSET 7.20834 -1.32182 -1.10884
    CHANNELS 3 Zrotation Xrotation Yrotation
    JOINT LeftUpLegRoll
    {
      OFFSET 0 18.7239 0
      CHANNELS 3 Zrotation Xrotation Yrotation
      JOINT LeftLeg
      {
        OFFSET 0 23.1865 0
        CHANNELS 3 Zrotation Xrotation Yrotation
        JOINT LeftLegRoll
        {
          OFFSET 0 23.4775 0
          CHANNELS 3 Zrotation Xrotation Yrotation
          JOINT LeftFoot
          {
            OFFSET 0 19.147 0
            CHANNELS 3 Zrotation Xrotation Yrotation
            JOINT LeftToeBase
            {
              OFFSET 0 16.1857 0
              CHANNELS 3 Zrotation Xrotation Yrotation
              End Site
              {
                OFFSET -0.0307459 7.83862 -0.903522
              }
            }
          }
        }
      }
    }
  }
}
MOTION
Frames: 7
Frame Time: 0.00208333
55.3413 96.6736 53.4456 -0.482153 -3.33334 -2.40569 0.25329 -1.70957 0.106788 0.510865 0.60035 0.190587 0.508816 2.24538 0.182086 -2.30774 13.2922 -4.56248 0.884843 0.678627 -5.14192 60.2211 -9.00624 -5.61791 111.625 21.5896 23.784 4.67877e-007 -1.9582e-006 -2.96753e-006 2.40055 0.642342 -0.459984 -1.99794e-006 -1.87314e-006 -3.00274 8.02997 -4.95139 0.697631 -61.7504 -9.01193 5.64556 -109.431 18.1728 -8.60522 -3.81114e-006 4.79298e-006 -5.05181e-006 -8.50292 0.0720583 1.03688 1.1285e-005 1.24613e-006 3.02385 -8.0291 -4.95145 -0.697677 174.703 1.51007 3.29768 180 7.01532e-015 178.858 177.631 7.7805 179.878 -3.65703e-006 4.08716e-006 0.0816853 -18.2016 67.2704 18.9568 8.13649 25.2327 -3.48774 -175.621 0.478647 -0.668686 4.5067e-006 -1.99009e-005 -1.13455 -1.7447 -9.54443 0.225589 -2.53651e-006 6.0105e-006 -0.152639 19.0457 68.4157 -19.8634 -8.14996 25.4516 3.19223 
55.3392 96.6777 53.4232 -0.475558 -3.32291 -2.39466 0.253921 -1.71309 0.103307 0.511819 0.592114 0.183413 0.509857 2.23715 0.174894 -2.3482 13.3545 -4.55073 0.917377 0.641072 -5.13866 60.1935 -8.96872 -5.59436 111.646 21.5736 23.8046 4.67877e-007 -1.9582e-006 -2.96753e-006 2.38597 0.642548 -0.459838 -1.99794e-006 -1.87314e-006 -3.00274 8.02997 -4.95139 0.697631 -61.7956 -8.99604 5.63692 -109.389 18.1546 -8.60954 -3.81114e-006 4.79298e-006 -5.05181e-006 -8.51172 0.0720566 1.03126 1.1285e-005 1.24613e-006 3.02386 -8.0291 -4.95145 -0.697677 174.692 1.53322 3.30559 180 7.01532e-015 178.858 177.626 7.79909 179.878 -3.65703e-006 4.08716e-006 0.0816564 -18.2064 67.2766 18.9621 8.13649 25.2327 -3.48774 -175.634 0.510514 -0.650514 4.5067e-006 -1.99009e-005 -1.13455 -1.73364 -9.56692 0.226831 -2.53651e-006 6.0105e-006 -0.152674 19.0513 68.4221 -19.8694 -8.14974 25.4484 3.19662 
55.3434 96.6795 53.4251 -0.468603 -3.31165 -2.38289 0.254616 -1.717 0.0995958 0.512862 0.583055 0.175768 0.510992 2.22809 0.16723 -2.3917 13.4216 -4.53806 0.952248 0.600168 -5.13513 60.164 -8.92858 -5.56916 111.669 21.5557 23.827 4.67877e-007 -1.9582e-006 -2.96753e-006 2.37047 0.643348 -0.459708 -1.99794e-006 -1.87314e-006 -3.00274 8.02997 -4.95139 0.697631 -61.8439 -8.97908 5.62769 -109.343 18.1345 -8.61464 -3.81114e-006 4.79298e-006 -5.05181e-006 -8.52113 0.0720549 1.02529 1.1285e-005 1.24613e-006 3.02388 -8.0291 -4.95145 -0.697677 174.68 1.55775 3.3139 180 7.01532e-015 178.858 177.621 7.81863 179.878 -3.65703e-006 4.08716e-006 0.0816133 -18.2116 67.2831 18.9677 8.13649 25.2327 -3.48774 -175.649 0.544577 -0.631181 4.5067e-006 -1.99009e-005 -1.13455 -1.72184 -9.5911 0.228167 -2.53651e-006 6.0105e-006 -0.152728 19.0574 68.4291 -19.876 -8.14951 25.4449 3.2013 
55.3401 96.6826 53.4281 -0.4614 -3.29982 -2.3706 0.255356 -1.72119 0.0957226 0.513965 0.57342 0.167793 0.512192 2.21845 0.159236 -2.43736 13.492 -4.52475 0.988757 0.556918 -5.13142 60.1331 -8.88659 -5.54282 111.692 21.5365 23.8507 4.67877e-007 -1.9582e-006 -2.96753e-006 2.35432 0.644562 -0.459591 -1.99794e-006 -1.87314e-006 -3.00274 8.02997 -4.95139 0.697631 -61.8944 -8.96138 5.61807 -109.295 18.1131 -8.62029 -3.81114e-006 4.79298e-006 -5.05181e-006 -8.53097 0.072053 1.01906 1.1285e-005 1.24613e-006 3.02391 -8.0291 -4.95145 -0.697677 174.667 1.58324 3.3225 180 7.01532e-015 178.858 177.616 7.83891 179.878 -3.65703e-006 4.08716e-006 0.0815603 -18.2169 67.2899 18.9734 8.13649 25.2327 -3.48774 -175.664 0.580177 -0.611036 4.5067e-006 -1.99009e-005 -1.13455 -1.70951 -9.61647 0.229569 -2.53651e-006 6.0105e-006 -0.152793 19.064 68.4366 -19.8831 -8.14926 25.4413 3.20618 
55.3341 96.6836 53.4213 -0.454057 -3.28765 -2.35803 0.256121 -1.72553 0.0917569 0.515101 0.563455 0.159631 0.513428 2.20849 0.151053 -2.48426 13.5644 -4.51108 1.02621 0.512327 -5.1276 60.1015 -8.84354 -5.51584 111.716 21.5165 23.875 4.67877e-007 -1.9582e-006 -2.96753e-006 2.33779 0.646014 -0.45948 -1.99794e-006 -1.87314e-006 -3.00274 8.02997 -4.95139 0.697631 -61.9462 -8.94325 5.60822 -109.246 18.091 -8.62625 -3.81114e-006 4.79298e-006 -5.05181e-006 -8.54105 0.0720511 1.01269 1.1285e-005 1.24613e-006 3.02394 -8.0291 -4.95145 -0.697677 174.654 1.60929 3.33126 180 7.01532e-015 178.858 177.611 7.85957 179.878 -3.65703e-006 4.08716e-006 0.0815017 -18.2223 67.2968 18.9793 8.13649 25.2327 -3.48774 -175.679 0.616655 -0.590426 4.5067e-006 -1.99009e-005 -1.13455 -1.69688 -9.64252 0.231008 -2.53651e-006 6.0105e-006 -0.152866 19.0708 68.4444 -19.8904 -8.14901 25.4375 3.21119 
55.344 96.6725 53.4186 -0.446683 -3.2754 -2.34538 0.256893 -1.72991 0.0877682 0.516243 0.553409 0.151421 0.51467 2.19844 0.142822 -2.53149 13.6372 -4.49731 1.06389 0.467401 -5.12376 60.0696 -8.80023 -5.4887 111.74 21.4964 23.8996 4.67877e-007 -1.9582e-006 -2.96753e-006 2.32118 0.647525 -0.459371 -1.99794e-006 -1.87314e-006 -3.00274 8.02997 -4.95139 0.697631 -61.9983 -8.92502 5.59831 -109.196 18.0686 -8.6323 -3.81114e-006 4.79298e-006 -5.05181e-006 -8.5512 0.0720492 1.00629 1.1285e-005 1.24613e-006 3.02397 -8.0291 -4.95145 -0.697677 174.641 1.63547 3.34006 180 7.01532e-015 178.858 177.606 7.88034 179.879 -3.65703e-006 4.08716e-006 0.0814417 -18.2278 67.3037 18.9852 8.13649 25.2327 -3.48774 -175.694 0.653353 -0.5697 4.5067e-006 -1.99009e-005 -1.13455 -1.68418 -9.66873 0.232457 -2.53651e-006 6.0105e-006 -0.15294 19.0777 68.4523 -19.8978 -8.14876 25.4338 3.21622 
55.3452 96.6774 53.415 -0.439387 -3.26331 -2.33287 0.25765 -1.73421 0.0838256 0.517365 0.543527 0.143306 0.51589 2.18856 0.134686 -2.57816 13.7091 -4.48373 1.10112 0.423144 -5.11997 60.038 -8.75743 -5.46189 111.764 21.4766 23.9237 4.67877e-007 -1.9582e-006 -2.96753e-006 2.30474 0.648918 -0.459259 -1.99794e-006 -1.87314e-006 -3.00274 8.02997 -4.95139 0.697631 -62.0498 -8.90699 5.58852 -109.147 18.0466 -8.63818 -3.81114e-006 4.79298e-006 -5.05181e-006 -8.56122 0.0720473 0.999956 1.1285e-005 1.24613e-006 3.02399 -8.0291 -4.95145 -0.697677 174.628 1.66137 3.34878 180 7.01532e-015 178.858 177.601 7.90089 179.879 -3.65703e-006 4.08716e-006 0.0813845 -18.2332 67.3106 18.9911 8.13649 25.2327 -3.48774 -175.709 0.689612 -0.549206 4.5067e-006 -1.99009e-005 -1.13455 -1.67162 -9.69461 0.233887 -2.53651e-006 6.0105e-006 -0.15301 19.0844 68.46 -19.905 -8.1485 25.4301 3.2212 
